<mxfile host="app.diagrams.net" modified="2021-05-31T03:44:24.832Z" agent="5.0 (Windows NT 6.1; WOW64) AppleWebKit/537.36 (KHTML, like Gecko) Chrome/90.0.4430.212 Safari/537.36" etag="3SzZPMPycf-Pnalyz5uN" version="14.6.3" type="github">
  <diagram id="C5RBs43oDa-KdzZeNtuy" name="Page-1">
    <mxGraphModel dx="1168" dy="668" grid="1" gridSize="10" guides="1" tooltips="1" connect="1" arrows="1" fold="1" page="1" pageScale="1" pageWidth="827" pageHeight="1169" math="0" shadow="0">
      <root>
        <mxCell id="WIyWlLk6GJQsqaUBKTNV-0" />
        <mxCell id="WIyWlLk6GJQsqaUBKTNV-1" parent="WIyWlLk6GJQsqaUBKTNV-0" />
        <mxCell id="rWMwRWVKeR0WOQhEBVSM-0" value="系统更新" style="aspect=fixed;pointerEvents=1;shadow=0;dashed=0;html=1;strokeColor=none;labelPosition=center;verticalLabelPosition=bottom;verticalAlign=top;align=center;fillColor=#00188D;shape=mxgraph.mscae.enterprise.android_phone;fontSize=16;" vertex="1" parent="WIyWlLk6GJQsqaUBKTNV-1">
          <mxGeometry x="360" y="270" width="78" height="130" as="geometry" />
        </mxCell>
        <mxCell id="rWMwRWVKeR0WOQhEBVSM-1" value="Lastmile" style="outlineConnect=0;dashed=0;verticalLabelPosition=bottom;verticalAlign=top;align=center;html=1;shape=mxgraph.aws3.android;fillColor=#96BF3D;gradientColor=none;fontSize=16;" vertex="1" parent="WIyWlLk6GJQsqaUBKTNV-1">
          <mxGeometry x="540" y="293" width="73.5" height="84" as="geometry" />
        </mxCell>
        <mxCell id="rWMwRWVKeR0WOQhEBVSM-3" value="" style="shape=flexArrow;endArrow=classic;html=1;exitX=1;exitY=0.5;exitDx=0;exitDy=0;exitPerimeter=0;fontSize=16;" edge="1" parent="WIyWlLk6GJQsqaUBKTNV-1" source="rWMwRWVKeR0WOQhEBVSM-0" target="rWMwRWVKeR0WOQhEBVSM-1">
          <mxGeometry width="50" height="50" relative="1" as="geometry">
            <mxPoint x="460" y="360" as="sourcePoint" />
            <mxPoint x="520" y="340" as="targetPoint" />
          </mxGeometry>
        </mxCell>
        <mxCell id="rWMwRWVKeR0WOQhEBVSM-4" value="集成" style="edgeLabel;html=1;align=center;verticalAlign=middle;resizable=0;points=[];fontSize=16;" vertex="1" connectable="0" parent="rWMwRWVKeR0WOQhEBVSM-3">
          <mxGeometry x="-0.2157" y="-7" relative="1" as="geometry">
            <mxPoint as="offset" />
          </mxGeometry>
        </mxCell>
        <mxCell id="rWMwRWVKeR0WOQhEBVSM-9" value="Lastmile服务" style="points=[];aspect=fixed;html=1;align=center;shadow=0;dashed=0;image;image=img/lib/allied_telesis/computer_and_terminals/Server_Desktop.svg;fontSize=16;" vertex="1" parent="WIyWlLk6GJQsqaUBKTNV-1">
          <mxGeometry x="470" y="560" width="58.38" height="74" as="geometry" />
        </mxCell>
        <mxCell id="rWMwRWVKeR0WOQhEBVSM-10" value="" style="endArrow=classic;startArrow=classic;html=1;fontSize=16;entryX=0.5;entryY=1;entryDx=0;entryDy=0;entryPerimeter=0;exitX=-0.031;exitY=0.562;exitDx=0;exitDy=0;exitPerimeter=0;" edge="1" parent="WIyWlLk6GJQsqaUBKTNV-1" source="rWMwRWVKeR0WOQhEBVSM-9" target="rWMwRWVKeR0WOQhEBVSM-0">
          <mxGeometry width="50" height="50" relative="1" as="geometry">
            <mxPoint x="399" y="500" as="sourcePoint" />
            <mxPoint x="440" y="400" as="targetPoint" />
            <Array as="points">
              <mxPoint x="399" y="600" />
            </Array>
          </mxGeometry>
        </mxCell>
        <mxCell id="rWMwRWVKeR0WOQhEBVSM-11" value="定时任务&lt;br&gt;获取任务" style="edgeLabel;html=1;align=center;verticalAlign=middle;resizable=0;points=[];fontSize=16;labelBackgroundColor=#CCFFCC;" vertex="1" connectable="0" parent="rWMwRWVKeR0WOQhEBVSM-10">
          <mxGeometry x="0.5093" y="3" relative="1" as="geometry">
            <mxPoint x="3" y="24" as="offset" />
          </mxGeometry>
        </mxCell>
      </root>
    </mxGraphModel>
  </diagram>
</mxfile>
